<?xml version="1.0" encoding="UTF-8"?>
<svg width="16px" height="16px" viewBox="0 0 16 16" version="1.1" xmlns="http://www.w3.org/2000/svg" xmlns:xlink="http://www.w3.org/1999/xlink">
    <!-- Generator: Sketch 50.2 (55047) - http://www.bohemiancoding.com/sketch -->
    <title>lock</title>
    <desc>Created with Sketch.</desc>
    <defs>
        <path d="M4,6.66666667 L4,4.66666667 C4,2.45752767 5.790861,0.666666667 8,0.666666667 C10.209139,0.666666667 12,2.45752767 12,4.66666667 L12,6.66666667 L12.6666667,6.66666667 C13.7712362,6.66666667 14.6666667,7.56209717 14.6666667,8.66666667 L14.6666667,13.3333333 C14.6666667,14.4379028 13.7712362,15.3333333 12.6666667,15.3333333 L3.33333333,15.3333333 C2.22876383,15.3333333 1.33333333,14.4379028 1.33333333,13.3333333 L1.33333333,8.66666667 C1.33333333,7.56209717 2.22876383,6.66666667 3.33333333,6.66666667 L4,6.66666667 Z M5.33333333,6.66666667 L10.6666667,6.66666667 L10.6666667,4.66666667 C10.6666667,3.19390733 9.47275933,2 8,2 C6.52724067,2 5.33333333,3.19390733 5.33333333,4.66666667 L5.33333333,6.66666667 Z M3.33333333,8 C2.9651435,8 2.66666667,8.29847683 2.66666667,8.66666667 L2.66666667,13.3333333 C2.66666667,13.7015232 2.9651435,14 3.33333333,14 L12.6666667,14 C13.0348565,14 13.3333333,13.7015232 13.3333333,13.3333333 L13.3333333,8.66666667 C13.3333333,8.29847683 13.0348565,8 12.6666667,8 L3.33333333,8 Z" id="path-1"></path>
    </defs>
    <g id="lock" stroke="none" stroke-width="1" fill="none" fill-rule="evenodd">
        <mask id="mask-2" fill="white">
            <use xlink:href="#path-1"></use>
        </mask>
        <use id="Combined-Shape" fill="#000000" xlink:href="#path-1"></use>
        <g id="Color/theme/middle" mask="url(#mask-2)" fill="#808FA3">
            <rect id="Rectangle-3" x="0" y="0" width="16" height="16"></rect>
        </g>
    </g>
</svg>