<?xml version="1.0" encoding="UTF-8"?>
<svg width="56px" height="56px" viewBox="0 0 56 56" version="1.1" xmlns="http://www.w3.org/2000/svg" xmlns:xlink="http://www.w3.org/1999/xlink">
    <!-- Generator: Sketch 52.5 (67469) - http://www.bohemiancoding.com/sketch -->
    <title>形状</title>
    <desc>Created with Sketch.</desc>
    <g id="Page-1" stroke="none" stroke-width="1" fill="none" fill-rule="evenodd">
        <g id="扫一扫iphoenx-2" transform="translate(-234.000000, -1477.000000)" fill="#4C84FF" fill-rule="nonzero">
            <g id="分组-5" transform="translate(211.000000, 1465.000000)">
                <g id="分组-8">
                    <g id="分组" transform="translate(23.000000, 12.000000)">
                        <g id="分组-7">
                            <g id="分组-6">
                                <g id="扫码用户线索">
                                    <path d="M27.9975489,0 C12.5330958,0 0,12.5372277 0,28.0011205 C0,43.466484 12.5330959,56.004482 27.9975489,56.004482 C43.4641729,56.004482 56,43.466554 56,28.0011205 C55.9999999,12.5372277 43.4641729,0 27.9975489,0 Z M32.7406077,12.5104759 L38.6606073,12.5104759 C40.644305,12.5104759 42.2583793,14.1246202 42.2583793,16.1081779 L42.2583793,22.3754612 C42.2583793,23.1702428 41.6140242,23.814598 40.8193125,23.814598 C40.0245308,23.814598 39.3802458,23.1702428 39.3802458,22.3754612 L39.3802458,16.1081779 C39.3802458,15.7111022 39.057683,15.3887495 38.6606073,15.3887495 L32.7406078,15.3887495 C31.9458261,15.3887495 31.301471,14.7443944 31.301471,13.9496827 C31.3014708,13.154831 31.945896,12.5104759 32.7406077,12.5104759 Z M13.0867609,16.1434735 C13.0867609,14.1596356 14.7007651,12.5457014 16.6844628,12.5457014 L22.6044624,12.5457014 C23.3992441,12.5457014 24.0436693,13.1899865 24.0436693,13.9847682 C24.0436693,14.7795499 23.3992441,15.423905 22.6044624,15.423905 L16.6844628,15.423905 C16.2874571,15.423905 15.9648944,15.7464677 15.9648944,16.1434734 L15.9648944,22.4105466 C15.9648944,23.2053283 15.3205393,23.8496834 14.5258276,23.8496834 C13.731046,23.8496834 13.0867609,23.2053283 13.0867609,22.4105466 L13.0867609,16.1434735 Z M23.0787823,43.8234319 L17.1587827,43.8234319 C15.1750149,43.8234319 13.5610107,42.2094977 13.5610107,40.2257999 L13.5610107,33.9578864 C13.5610107,33.1631047 14.2052958,32.5187496 15.0000074,32.5187496 C15.7948591,32.5187496 16.4392143,33.1631047 16.4392143,33.9578864 L16.4392143,40.2257999 C16.4392143,40.6227356 16.761777,40.9452983 17.1587827,40.9452983 L23.0787823,40.9452983 C23.873634,40.9452983 24.5179191,41.5896534 24.5179191,42.3843651 C24.5179192,43.1790768 23.873634,43.8234319 23.0787823,43.8234319 Z M14.8554635,29.4409576 C14.0600515,29.4409576 13.4163267,28.7973028 13.4163267,28.0018908 C13.4163267,27.2078794 14.0599815,26.562824 14.8554635,26.562824 L41.1475478,26.562824 C41.9415591,26.562824 42.5866846,27.2078794 42.5866846,28.0018908 C42.5866846,28.7973028 41.9415591,29.4409576 41.1475478,29.4409576 L14.8554635,29.4409576 Z M42.7326991,40.2257299 C42.7326991,42.2094277 41.1186249,43.8233618 39.1350672,43.8233618 L33.2149976,43.8233618 C32.4202159,43.8233618 31.7758608,43.1790768 31.7758608,42.3842951 C31.7758608,41.5895834 32.4202159,40.9452283 33.2149976,40.9452283 L39.1350672,40.9452283 C39.5320029,40.9452283 39.8545656,40.6226656 39.8545656,40.2257299 L39.8545656,33.9578164 C39.8545656,33.1630347 40.4989207,32.5186796 41.2935624,32.5186796 C42.088414,32.5186796 42.7326991,33.1630347 42.7326991,33.9578164 L42.7326991,40.2257299 Z" id="形状"></path>
                                </g>
                            </g>
                        </g>
                    </g>
                </g>
            </g>
        </g>
    </g>
</svg>