<?xml version="1.0" encoding="UTF-8"?>
<svg width="16px" height="16px" viewBox="0 0 16 16" version="1.1" xmlns="http://www.w3.org/2000/svg" xmlns:xlink="http://www.w3.org/1999/xlink">
    <!-- Generator: Sketch 50.2 (55047) - http://www.bohemiancoding.com/sketch -->
    <title>user</title>
    <desc>Created with Sketch.</desc>
    <defs>
        <path d="M14,14 C14,14.3681898 13.7015232,14.6666667 13.3333333,14.6666667 C12.9651435,14.6666667 12.6666667,14.3681898 12.6666667,14 L12.6666667,12.6666667 C12.6666667,11.5620972 11.7712362,10.6666667 10.6666667,10.6666667 L5.33333333,10.6666667 C4.22876383,10.6666667 3.33333333,11.5620972 3.33333333,12.6666667 L3.33333333,14 C3.33333333,14.3681898 3.0348565,14.6666667 2.66666667,14.6666667 C2.29847683,14.6666667 2,14.3681898 2,14 L2,12.6666667 C2,10.8257175 3.49238417,9.33333333 5.33333333,9.33333333 L10.6666667,9.33333333 C12.5076158,9.33333333 14,10.8257175 14,12.6666667 L14,14 Z M8,8 C6.15905083,8 4.66666667,6.50761583 4.66666667,4.66666667 C4.66666667,2.8257175 6.15905083,1.33333333 8,1.33333333 C9.84094917,1.33333333 11.3333333,2.8257175 11.3333333,4.66666667 C11.3333333,6.50761583 9.84094917,8 8,8 Z M8,6.66666667 C9.1045695,6.66666667 10,5.77123617 10,4.66666667 C10,3.56209717 9.1045695,2.66666667 8,2.66666667 C6.8954305,2.66666667 6,3.56209717 6,4.66666667 C6,5.77123617 6.8954305,6.66666667 8,6.66666667 Z" id="path-1"></path>
    </defs>
    <g id="user" stroke="none" stroke-width="1" fill="none" fill-rule="evenodd">
        <mask id="mask-2" fill="white">
            <use xlink:href="#path-1"></use>
        </mask>
        <use id="Combined-Shape" fill="#000000" fill-rule="nonzero" xlink:href="#path-1"></use>
        <g id="Color/theme/middle" mask="url(#mask-2)" fill="#808FA3">
            <rect id="Rectangle-3" x="0" y="0" width="16" height="16"></rect>
        </g>
    </g>
</svg>